<?xml version="1.0" encoding="UTF-8" standalone="no"?>
<!-- Generator: Adobe Illustrator 19.0.0, SVG Export Plug-In . SVG Version: 6.00 Build 0)  -->

<svg
   xmlns:dc="http://purl.org/dc/elements/1.1/"
   xmlns:cc="http://creativecommons.org/ns#"
   xmlns:rdf="http://www.w3.org/1999/02/22-rdf-syntax-ns#"
   xmlns:svg="http://www.w3.org/2000/svg"
   xmlns="http://www.w3.org/2000/svg"
   xmlns:sodipodi="http://sodipodi.sourceforge.net/DTD/sodipodi-0.dtd"
   xmlns:inkscape="http://www.inkscape.org/namespaces/inkscape"
   version="1.1"
   id="Capa_1"
   x="0px"
   y="0px"
   viewBox="0 0 490.235 490.235"
   style="enable-background:new 0 0 490.235 490.235;"
   xml:space="preserve"
   inkscape:version="0.91 r13725"
   sodipodi:docname="btn_xy_0.svg"><metadata
     id="metadata75"><rdf:RDF><cc:Work
         rdf:about=""><dc:format>image/svg+xml</dc:format><dc:type
           rdf:resource="http://purl.org/dc/dcmitype/StillImage" /></cc:Work></rdf:RDF></metadata><defs
     id="defs73" /><sodipodi:namedview
     pagecolor="#ffffff"
     bordercolor="#666666"
     borderopacity="1"
     objecttolerance="10"
     gridtolerance="10"
     guidetolerance="10"
     inkscape:pageopacity="0"
     inkscape:pageshadow="2"
     inkscape:window-width="640"
     inkscape:window-height="480"
     id="namedview71"
     showgrid="false"
     inkscape:zoom="0.48140179"
     inkscape:cx="245.11749"
     inkscape:cy="245.11749"
     inkscape:window-x="0"
     inkscape:window-y="0"
     inkscape:window-maximized="0"
     inkscape:current-layer="Capa_1" /><g
     id="g3"
     transform="matrix(1,0,0,-1,0,490.23445)"><g
       id="g5"><g
         id="g7"><path
           d="m 6.2,240.573 213.1,176.3 c 5.1,4.2 12.2,5.1 18.2,2.3 6,-2.8 9.8,-8.9 9.8,-15.5 l 0,-88.4 c 82.9,0.4 140.8,8.3 210.8,131.8 3.1,5.5 8.9,8.7 14.9,8.7 1.5,0 2.9,-0.2 4.4,-0.6 7.5,-2 12.8,-8.8 12.8,-16.6 0,-3.4 0,-7 0,-10.7 0.2,-46.6 0.6,-117 -31.8,-176.9 -37.2,-68.9 -108.2,-106 -211.1,-110.6 l 0,-88.8 c 0,-6.6 -3.8,-12.7 -9.8,-15.5 -6,-2.8 -13.1,-1.9 -18.2,2.3 L 6.2,214.073 c -3.9,3.3 -6.2,8.1 -6.2,13.2 0,5.1 2.2,10 6.2,13.3 z m 206.9,-152.6 0,69.2 c 0,9.4 7.6,17.1 17,17.2 191,1.8 220.8,113.3 225.2,204.6 -67.7,-92.7 -132.4,-98 -225,-98 l 0,0 c -4.5,0 -8.9,1.8 -12.1,5 -3.2,3.2 -5,7.6 -5,12.1 l 0,69.2 -169,-139.9 168.9,-139.4 z"
           id="path9"
           inkscape:connector-curvature="0" /></g></g><g
       id="g11" /><g
       id="g13" /><g
       id="g15" /><g
       id="g17" /><g
       id="g19" /><g
       id="g21" /><g
       id="g23" /><g
       id="g25" /><g
       id="g27" /><g
       id="g29" /><g
       id="g31" /><g
       id="g33" /><g
       id="g35" /><g
       id="g37" /><g
       id="g39" /></g><g
     id="g41" /><g
     id="g43" /><g
     id="g45" /><g
     id="g47" /><g
     id="g49" /><g
     id="g51" /><g
     id="g53" /><g
     id="g55" /><g
     id="g57" /><g
     id="g59" /><g
     id="g61" /><g
     id="g63" /><g
     id="g65" /><g
     id="g67" /><g
     id="g69" /></svg>