<?xml version="1.0" encoding="UTF-8" standalone="no"?>
<!-- Generator: Adobe Illustrator 19.0.0, SVG Export Plug-In . SVG Version: 6.00 Build 0)  -->

<svg
   xmlns:dc="http://purl.org/dc/elements/1.1/"
   xmlns:cc="http://creativecommons.org/ns#"
   xmlns:rdf="http://www.w3.org/1999/02/22-rdf-syntax-ns#"
   xmlns:svg="http://www.w3.org/2000/svg"
   xmlns="http://www.w3.org/2000/svg"
   xmlns:sodipodi="http://sodipodi.sourceforge.net/DTD/sodipodi-0.dtd"
   xmlns:inkscape="http://www.inkscape.org/namespaces/inkscape"
   version="1.1"
   id="Capa_1"
   x="0px"
   y="0px"
   viewBox="0 0 490.2 490.2"
   style="enable-background:new 0 0 490.2 490.2;"
   xml:space="preserve"
   inkscape:version="0.91 r13725"
   sodipodi:docname="btn_pom.svg"><metadata
     id="metadata77"><rdf:RDF><cc:Work
         rdf:about=""><dc:format>image/svg+xml</dc:format><dc:type
           rdf:resource="http://purl.org/dc/dcmitype/StillImage" /></cc:Work></rdf:RDF></metadata><defs
     id="defs75" /><sodipodi:namedview
     pagecolor="#ffffff"
     bordercolor="#666666"
     borderopacity="1"
     objecttolerance="10"
     gridtolerance="10"
     guidetolerance="10"
     inkscape:pageopacity="0"
     inkscape:pageshadow="2"
     inkscape:window-width="1280"
     inkscape:window-height="972"
     id="namedview73"
     showgrid="false"
     inkscape:zoom="0.48143614"
     inkscape:cx="245.10001"
     inkscape:cy="245.10001"
     inkscape:window-x="-8"
     inkscape:window-y="-8"
     inkscape:window-maximized="1"
     inkscape:current-layer="Capa_1" /><g
     id="g3"
     transform="matrix(0,1,1,0,0,0)"><g
       id="g5"><g
         id="g7"><path
           d="m 341.1,34.3 90.5,0 -206.9,207 c -6.7,6.7 -6.7,17.6 0,24.3 3.3,3.3 7.7,5 12.1,5 4.4,0 8.8,-1.7 12.1,-5 l 207,-207 0,90.5 c 0,9.5 7.7,17.2 17.1,17.2 9.5,0 17.2,-7.7 17.2,-17.2 l 0,-131.9 C 490.2,7.7 482.5,0 473,0 L 341.1,0 c -9.5,0 -17.2,7.7 -17.2,17.2 0.1,9.4 7.7,17.1 17.2,17.1 z"
           id="path9"
           inkscape:connector-curvature="0" /><path
           d="m 102.9,490.2 284.3,0 c 56.8,0 102.9,-46.2 102.9,-102.9 l 0,-133.9 c 0,-9.5 -7.7,-17.1 -17.2,-17.1 -9.5,0 -17.1,7.7 -17.1,17.1 l 0,133.8 c 0,37.8 -30.8,68.6 -68.6,68.6 l -284.3,0 C 65.1,455.8 34.3,425 34.3,387.2 l 0,-225.8 0,-58.4 c 0,-37.8 30.8,-68.6 68.6,-68.6 l 132.7,0 c 9.5,0 17.1,-7.7 17.1,-17.2 C 252.7,7.7 245,0 235.6,0 L 102.9,0 C 46.1,0 0,46.2 0,102.9 l 0,58.4 0,225.9 c 0,56.8 46.2,103 102.9,103 z"
           id="path11"
           inkscape:connector-curvature="0" /></g></g><g
       id="g13" /><g
       id="g15" /><g
       id="g17" /><g
       id="g19" /><g
       id="g21" /><g
       id="g23" /><g
       id="g25" /><g
       id="g27" /><g
       id="g29" /><g
       id="g31" /><g
       id="g33" /><g
       id="g35" /><g
       id="g37" /><g
       id="g39" /><g
       id="g41" /></g><g
     id="g43" /><g
     id="g45" /><g
     id="g47" /><g
     id="g49" /><g
     id="g51" /><g
     id="g53" /><g
     id="g55" /><g
     id="g57" /><g
     id="g59" /><g
     id="g61" /><g
     id="g63" /><g
     id="g65" /><g
     id="g67" /><g
     id="g69" /><g
     id="g71" /></svg>