<?xml version="1.0" encoding="UTF-8" standalone="no"?>
<!-- Generator: Adobe Illustrator 19.0.0, SVG Export Plug-In . SVG Version: 6.00 Build 0)  -->

<svg
   xmlns:dc="http://purl.org/dc/elements/1.1/"
   xmlns:cc="http://creativecommons.org/ns#"
   xmlns:rdf="http://www.w3.org/1999/02/22-rdf-syntax-ns#"
   xmlns:svg="http://www.w3.org/2000/svg"
   xmlns="http://www.w3.org/2000/svg"
   xmlns:sodipodi="http://sodipodi.sourceforge.net/DTD/sodipodi-0.dtd"
   xmlns:inkscape="http://www.inkscape.org/namespaces/inkscape"
   version="1.1"
   id="Capa_1"
   x="0px"
   y="0px"
   viewBox="0 0 490 490"
   style="enable-background:new 0 0 490 490;"
   xml:space="preserve"
   inkscape:version="0.91 r13725"
   sodipodi:docname="btn_db_reload.svg"><metadata
     id="metadata77"><rdf:RDF><cc:Work
         rdf:about=""><dc:format>image/svg+xml</dc:format><dc:type
           rdf:resource="http://purl.org/dc/dcmitype/StillImage" /></cc:Work></rdf:RDF></metadata><defs
     id="defs75" /><sodipodi:namedview
     pagecolor="#ffffff"
     bordercolor="#666666"
     borderopacity="1"
     objecttolerance="10"
     gridtolerance="10"
     guidetolerance="10"
     inkscape:pageopacity="0"
     inkscape:pageshadow="2"
     inkscape:window-width="1280"
     inkscape:window-height="972"
     id="namedview73"
     showgrid="false"
     inkscape:zoom="0.48163265"
     inkscape:cx="245"
     inkscape:cy="245"
     inkscape:window-x="-8"
     inkscape:window-y="-8"
     inkscape:window-maximized="1"
     inkscape:current-layer="g5" /><g
     id="g5"><path
       d="m 245,407 c -9.5,0 -17.2,-7.7 -17.2,-17.2 l 0,-331.2 -58.8,58.8 c -6.7,6.7 -17.6,6.7 -24.3,0 -6.7,-6.7 -6.7,-17.6 0,-24.3 L 232.8,5 c 3.3,-3.3 7.7,-5 12.1,-5 4.4,0 8.8,1.7 12.1,5 l 88.1,88.1 c 6.7,6.7 6.7,17.6 0,24.3 -6.7,6.7 -17.6,6.7 -24.3,0 L 262,58.6 l 0,331.3 c 0.1,9.5 -7.5,17.1 -17,17.1 z"
       id="path9"
       inkscape:connector-curvature="0" /><path
       d="m 462.1,472.9 0,-99.7 c 0,-9.5 -7.7,-17.2 -17.2,-17.2 -9.5,0 -17.2,7.7 -17.2,17.2 l 0,82.6 -365.5,0 0,-82.6 c 0,-9.5 -7.7,-17.2 -17.1,-17.2 -9.4,0 -17.2,7.7 -17.2,17.2 l 0,99.7 c 0,9.5 7.7,17.1 17.2,17.1 l 399.8,0 c 9.5,0 17.2,-7.6 17.2,-17.1 z"
       id="path11"
       inkscape:connector-curvature="0" /></g><g
     id="g13" /><g
     id="g15" /><g
     id="g17" /><g
     id="g19" /><g
     id="g21" /><g
     id="g23" /><g
     id="g25" /><g
     id="g27" /><g
     id="g29" /><g
     id="g31" /><g
     id="g33" /><g
     id="g35" /><g
     id="g37" /><g
     id="g39" /><g
     id="g41" /><g
     id="g43" /><g
     id="g45" /><g
     id="g47" /><g
     id="g49" /><g
     id="g51" /><g
     id="g53" /><g
     id="g55" /><g
     id="g57" /><g
     id="g59" /><g
     id="g61" /><g
     id="g63" /><g
     id="g65" /><g
     id="g67" /><g
     id="g69" /><g
     id="g71" /></svg>