<?xml version="1.0" encoding="iso-8859-1"?>
<!-- Generator: Adobe Illustrator 19.0.0, SVG Export Plug-In . SVG Version: 6.00 Build 0)  -->
<svg version="1.1" id="Capa_1" xmlns="http://www.w3.org/2000/svg" xmlns:xlink="http://www.w3.org/1999/xlink" x="0px" y="0px"
	 viewBox="0 0 463 463" style="enable-background:new 0 0 463 463;" xml:space="preserve">
<g>
	<path d="M431.5,48h-400C14.131,48,0,62.131,0,79.5v288c0,14.785,10.241,27.216,24,30.591v9.409c0,4.142,3.358,7.5,7.5,7.5
		s7.5-3.358,7.5-7.5V399h385v8.5c0,4.142,3.358,7.5,7.5,7.5s7.5-3.358,7.5-7.5v-9.409c13.759-3.374,24-15.806,24-30.591v-288
		C463,62.131,448.869,48,431.5,48z M448,367.5c0,9.098-7.402,16.5-16.5,16.5h-400c-9.098,0-16.5-7.402-16.5-16.5v-288
		C15,70.402,22.402,63,31.5,63h400c9.098,0,16.5,7.402,16.5,16.5V367.5z"/>
	<path d="M423.5,80h-384c-4.142,0-7.5,3.358-7.5,7.5v240c0,4.142,3.358,7.5,7.5,7.5h384c4.142,0,7.5-3.358,7.5-7.5v-240
		C431,83.358,427.642,80,423.5,80z M416,320H47V95h369V320z"/>
	<path d="M415.5,352h-8c-4.142,0-7.5,3.358-7.5,7.5s3.358,7.5,7.5,7.5h8c4.142,0,7.5-3.358,7.5-7.5S419.642,352,415.5,352z"/>
	<path d="M375.5,352h-8c-4.142,0-7.5,3.358-7.5,7.5s3.358,7.5,7.5,7.5h8c4.142,0,7.5-3.358,7.5-7.5S379.642,352,375.5,352z"/>
	<path d="M335.5,352h-24c-4.142,0-7.5,3.358-7.5,7.5s3.358,7.5,7.5,7.5h24c4.142,0,7.5-3.358,7.5-7.5S339.642,352,335.5,352z"/>
	<path d="M71.5,215h56c3.441,0,6.441-2.342,7.276-5.681l8.503-34.013l24.92,105.912c0.798,3.39,3.822,5.782,7.3,5.782
		c0.016,0,0.031,0,0.047,0c3.498-0.022,6.516-2.458,7.275-5.873L197.516,215h73.987c3.441,0,6.441-2.342,7.276-5.681l8.5-34.009
		l24.919,105.908c0.798,3.39,3.822,5.782,7.3,5.782c0.016,0,0.031,0,0.047,0c3.498-0.022,6.516-2.458,7.275-5.873L341.519,215H391.5
		c4.142,0,7.5-3.358,7.5-7.5s-3.358-7.5-7.5-7.5h-55.998c-3.515,0-6.559,2.441-7.321,5.873l-8.89,39.997l-24.491-104.087
		c-0.793-3.369-3.788-5.758-7.249-5.782c-3.461-0.004-6.489,2.324-7.328,5.681L265.647,200H191.5c-3.515,0-6.559,2.441-7.321,5.873
		l-8.888,39.994l-24.49-104.084c-0.793-3.369-3.788-5.758-7.249-5.782c-0.018,0-0.035,0-0.053,0c-3.439,0-6.44,2.34-7.275,5.681
		L121.644,200H71.5c-4.142,0-7.5,3.358-7.5,7.5S67.358,215,71.5,215z"/>
</g>
<g>
</g>
<g>
</g>
<g>
</g>
<g>
</g>
<g>
</g>
<g>
</g>
<g>
</g>
<g>
</g>
<g>
</g>
<g>
</g>
<g>
</g>
<g>
</g>
<g>
</g>
<g>
</g>
<g>
</g>
</svg>
