<?xml version="1.0" encoding="UTF-8" standalone="no"?>
<svg
   xmlns:dc="http://purl.org/dc/elements/1.1/"
   xmlns:cc="http://creativecommons.org/ns#"
   xmlns:rdf="http://www.w3.org/1999/02/22-rdf-syntax-ns#"
   xmlns:svg="http://www.w3.org/2000/svg"
   xmlns="http://www.w3.org/2000/svg"
   xmlns:sodipodi="http://sodipodi.sourceforge.net/DTD/sodipodi-0.dtd"
   xmlns:inkscape="http://www.inkscape.org/namespaces/inkscape"
   inkscape:version="1.0 (4035a4fb49, 2020-05-01)"
   sodipodi:docname="bd_back.svg"
   id="svg56"
   version="1.1"
   viewBox="0 0 209.10000000000002 54.099999999999994"
   height="54.099999999999994mm"
   width="209.10000000000002mm">
  <metadata
     id="metadata62">
    <rdf:RDF>
      <cc:Work
         rdf:about="">
        <dc:format>image/svg+xml</dc:format>
        <dc:type
           rdf:resource="http://purl.org/dc/dcmitype/StillImage" />
      </cc:Work>
    </rdf:RDF>
  </metadata>
  <defs
     id="defs60" />
  <sodipodi:namedview
     inkscape:current-layer="svg56"
     inkscape:window-maximized="1"
     inkscape:window-y="-12"
     inkscape:window-x="-12"
     inkscape:cy="102.23622"
     inkscape:cx="395.14962"
     inkscape:zoom="2.3105172"
     showgrid="false"
     id="namedview58"
     inkscape:window-height="2066"
     inkscape:window-width="3840"
     inkscape:pageshadow="2"
     inkscape:pageopacity="0"
     guidetolerance="10"
     gridtolerance="10"
     objecttolerance="10"
     borderopacity="1"
     bordercolor="#666666"
     pagecolor="#ffffff" />
  <g
     style="fill:none"
     transform="translate(104.550000,52.050000) scale(1,-1)"
     id="Body019">
    <path
       style="stroke-width:0.35;stroke-miterlimit:4;stroke-dasharray:none;fill:none;fill-opacity:0.2;fill-rule:evenodd"
       stroke-width="0.35 px"
       stroke="#191919"
       d="M 97.5 49.99999999999996 L 97.5 49.99999999999996 L -97.5 49.99999999999996 L -97.5 49.99999999999996 L 97.5 49.99999999999996 Z "
       id="Body019_f0000" />
    <path
       style="stroke-width:0.35;stroke-miterlimit:4;stroke-dasharray:none;fill:none;fill-opacity:0.2;fill-rule:evenodd"
       stroke-width="0.35 px"
       stroke="#191919"
       d="M 97.49999999999999 39.99999999999996 L 97.49999999999999 39.99999999999996 L 97.5 49.99999999999996 L 97.5 49.99999999999996 L 97.49999999999999 39.99999999999996 Z "
       id="Body019_f0001" />
    <path
       style="stroke-width:0.35;stroke-miterlimit:4;stroke-dasharray:none;fill:none;fill-opacity:0.2;fill-rule:evenodd"
       stroke-width="0.35 px"
       stroke="#191919"
       d="M -97.5 49.99999999999996 L -97.5 49.99999999999996 L -97.5 39.99999999999996 L -97.5 39.99999999999996 L -97.5 49.99999999999996 Z "
       id="Body019_f0002" />
    <path
       style="stroke-width:0.35;stroke-miterlimit:4;stroke-dasharray:none;fill:none;fill-opacity:0.2;fill-rule:evenodd"
       stroke-width="0.35 px"
       stroke="#191919"
       d="M 102.5 39.99999999999996 L 97.49999999999999 39.99999999999996 L 97.5 49.99999999999996 L -97.5 49.99999999999996 L -97.5 39.99999999999996 L -102.50000000000001 39.99999999999996 L -102.50000000000001 39.99367594259824 L -102.50000000000001 28.99367594259824 L -97.50000000000001 28.99367594259824 L -97.50000000000001 26.74367594259824 L -94.50000000000001 26.74367594259824 L -94.50000000000001 27.74367594259824 L -91.50000000000001 27.74367594259824 L -91.50000000000001 26.74367594259824 L -88.50000000000001 26.74367594259824 L -88.50000000000001 23.24367594259824 L -91.50000000000001 23.24367594259824 L -91.50000000000001 22.24367594259824 L -94.50000000000001 22.24367594259824 L -94.50000000000001 23.24367594259824 L -97.50000000000001 23.24367594259824 L -97.50000000000001 20.99367594259824 L -102.50000000000001 20.99367594259824 L -102.50000000000001 9.999999999999964 L -97.5 9.999999999999964 L -97.5 -3.9968028886505635e-14 L -87.5 -3.9968028886505635e-14 L -87.5 4.99999999999996 L 87.5 4.99999999999996 L 87.5 -3.9968028886505635e-14 L 97.5 -3.9968028886505635e-14 L 97.5 9.999999999999961 L 102.5 9.999999999999961 L 102.49999999999999 20.99999999999994 L 97.49999999999997 20.99999999999994 L 97.49999999999997 23.24999999999994 L 94.49999999999997 23.24999999999994 L 94.49999999999997 22.24999999999994 L 91.49999999999997 22.24999999999994 L 91.49999999999997 23.24999999999994 L 88.49999999999997 23.24999999999994 L 88.49999999999997 26.74999999999994 L 91.49999999999997 26.74999999999994 L 91.49999999999997 27.74999999999994 L 94.49999999999997 27.74999999999994 L 94.49999999999997 26.74999999999994 L 97.49999999999997 26.74999999999994 L 97.49999999999997 28.99999999999994 L 102.49999999999999 28.99999999999994 L 102.5 39.99999999999996 Z "
       id="Body019_f0003" />
    <path
       style="stroke-width:0.35;stroke-miterlimit:4;stroke-dasharray:none;fill:none;fill-opacity:0.2;fill-rule:evenodd"
       stroke-width="0.35 px"
       stroke="#191919"
       d="M -97.5 49.99999999999996 L -97.5 39.99999999999996 L -102.50000000000001 39.99999999999996 L -102.50000000000001 39.99367594259824 L -102.50000000000001 28.993675942598237 L -97.50000000000001 28.993675942598237 L -97.50000000000001 26.743675942598237 L -94.50000000000001 26.743675942598237 L -94.50000000000001 27.743675942598237 L -91.50000000000001 27.743675942598237 L -91.50000000000001 26.743675942598237 L -88.50000000000001 26.743675942598237 L -88.50000000000001 23.243675942598237 L -91.50000000000001 23.243675942598237 L -91.50000000000001 22.243675942598237 L -94.50000000000001 22.243675942598237 L -94.50000000000001 23.243675942598237 L -97.50000000000001 23.243675942598237 L -97.50000000000001 20.993675942598237 L -102.50000000000001 20.993675942598237 L -102.50000000000001 9.999999999999961 L -97.5 9.999999999999961 L -97.5 -4.2078251911130794e-14 L -87.5 -4.2078251911130794e-14 L -87.5 4.999999999999958 L 87.5 4.999999999999958 L 87.5 -4.2078251911130794e-14 L 97.5 -4.2078251911130794e-14 L 97.5 9.999999999999957 L 102.5 9.999999999999957 L 102.49999999999999 20.999999999999936 L 97.49999999999997 20.999999999999936 L 97.49999999999997 23.249999999999936 L 94.49999999999997 23.249999999999936 L 94.49999999999997 22.249999999999936 L 91.49999999999997 22.249999999999936 L 91.49999999999997 23.249999999999936 L 88.49999999999997 23.249999999999936 L 88.49999999999997 26.749999999999936 L 91.49999999999997 26.749999999999936 L 91.49999999999997 27.749999999999936 L 94.49999999999997 27.749999999999936 L 94.49999999999997 26.749999999999936 L 97.49999999999997 26.749999999999936 L 97.49999999999997 28.999999999999936 L 102.49999999999999 28.999999999999936 L 102.5 39.99999999999996 L 97.49999999999999 39.99999999999996 L 97.5 49.99999999999996 L -97.5 49.99999999999996 Z "
       id="Body019_f0004" />
    <path
       style="stroke-width:0.35;stroke-miterlimit:4;stroke-dasharray:none;fill:none;fill-opacity:0.2;fill-rule:evenodd"
       stroke-width="0.35 px"
       stroke="#191919"
       d="M 102.5 39.99999999999996 L 102.5 39.99999999999996 L 97.49999999999999 39.99999999999996 L 97.49999999999999 39.99999999999996 L 102.5 39.99999999999996 Z "
       id="Body019_f0005" />
    <path
       style="stroke-width:0.35;stroke-miterlimit:4;stroke-dasharray:none;fill:none;fill-opacity:0.2;fill-rule:evenodd"
       stroke-width="0.35 px"
       stroke="#191919"
       d="M -97.5 39.99999999999996 L -97.5 39.99999999999996 L -102.50000000000001 39.99999999999996 L -102.50000000000001 39.99999999999996 L -97.5 39.99999999999996 Z "
       id="Body019_f0006" />
    <path
       style="stroke-width:0.35;stroke-miterlimit:4;stroke-dasharray:none;fill:none;fill-opacity:0.2;fill-rule:evenodd"
       stroke-width="0.35 px"
       stroke="#191919"
       d="M 102.5 39.99999999999996 L 102.5 28.999999999999936 L 102.49999999999999 28.99999999999994 L 102.5 39.99999999999996 L 102.5 39.99999999999996 Z "
       id="Body019_f0007" />
    <path
       style="stroke-width:0.35;stroke-miterlimit:4;stroke-dasharray:none;fill:none;fill-opacity:0.2;fill-rule:evenodd"
       stroke-width="0.35 px"
       stroke="#191919"
       d="M 102.49999999999997 28.999999999999943 L 102.49999999999997 28.99999999999994 L 97.49999999999997 28.999999999999936 L 97.49999999999997 28.99999999999994 L 102.49999999999999 28.99999999999994 Z "
       id="Body019_f0008" />
    <path
       style="stroke-width:0.35;stroke-miterlimit:4;stroke-dasharray:none;fill:none;fill-opacity:0.2;fill-rule:evenodd"
       stroke-width="0.35 px"
       stroke="#191919"
       d="M 97.49999999999997 28.999999999999943 L 97.49999999999997 28.99999999999994 L 97.49999999999997 26.749999999999936 L 97.49999999999997 26.74999999999994 L 97.49999999999997 28.99999999999994 Z "
       id="Body019_f0009" />
    <path
       style="stroke-width:0.35;stroke-miterlimit:4;stroke-dasharray:none;fill:none;fill-opacity:0.2;fill-rule:evenodd"
       stroke-width="0.35 px"
       stroke="#191919"
       d="M 97.49999999999997 26.749999999999943 L 97.49999999999997 26.74999999999994 L 94.49999999999997 26.749999999999936 L 94.49999999999997 26.74999999999994 L 97.49999999999997 26.74999999999994 Z "
       id="Body019_f0010" />
    <path
       style="stroke-width:0.35;stroke-miterlimit:4;stroke-dasharray:none;fill:none;fill-opacity:0.2;fill-rule:evenodd"
       stroke-width="0.35 px"
       stroke="#191919"
       d="M 94.49999999999997 26.749999999999943 L 94.49999999999997 26.74999999999994 L 94.49999999999997 27.749999999999936 L 94.49999999999997 27.74999999999994 L 94.49999999999997 26.74999999999994 Z "
       id="Body019_f0011" />
    <path
       style="stroke-width:0.35;stroke-miterlimit:4;stroke-dasharray:none;fill:none;fill-opacity:0.2;fill-rule:evenodd"
       stroke-width="0.35 px"
       stroke="#191919"
       d="M 94.49999999999997 27.749999999999943 L 94.49999999999997 27.74999999999994 L 91.49999999999997 27.749999999999936 L 91.49999999999997 27.74999999999994 L 94.49999999999997 27.74999999999994 Z "
       id="Body019_f0012" />
    <path
       style="stroke-width:0.35;stroke-miterlimit:4;stroke-dasharray:none;fill:none;fill-opacity:0.2;fill-rule:evenodd"
       stroke-width="0.35 px"
       stroke="#191919"
       d="M 91.49999999999997 27.749999999999943 L 91.49999999999997 27.74999999999994 L 91.49999999999997 26.749999999999936 L 91.49999999999997 26.74999999999994 L 91.49999999999997 27.74999999999994 Z "
       id="Body019_f0013" />
    <path
       style="stroke-width:0.35;stroke-miterlimit:4;stroke-dasharray:none;fill:none;fill-opacity:0.2;fill-rule:evenodd"
       stroke-width="0.35 px"
       stroke="#191919"
       d="M 91.49999999999997 26.749999999999943 L 91.49999999999997 26.74999999999994 L 88.49999999999997 26.749999999999936 L 88.49999999999997 26.74999999999994 L 91.49999999999997 26.74999999999994 Z "
       id="Body019_f0014" />
    <path
       style="stroke-width:0.35;stroke-miterlimit:4;stroke-dasharray:none;fill:none;fill-opacity:0.2;fill-rule:evenodd"
       stroke-width="0.35 px"
       stroke="#191919"
       d="M 88.49999999999997 26.749999999999943 L 88.49999999999997 26.74999999999994 L 88.49999999999997 23.249999999999936 L 88.49999999999997 23.24999999999994 L 88.49999999999997 26.74999999999994 Z "
       id="Body019_f0015" />
    <path
       style="stroke-width:0.35;stroke-miterlimit:4;stroke-dasharray:none;fill:none;fill-opacity:0.2;fill-rule:evenodd"
       stroke-width="0.35 px"
       stroke="#191919"
       d="M 88.49999999999997 23.249999999999943 L 88.49999999999997 23.24999999999994 L 91.49999999999997 23.249999999999936 L 91.49999999999997 23.24999999999994 L 88.49999999999997 23.24999999999994 Z "
       id="Body019_f0016" />
    <path
       style="stroke-width:0.35;stroke-miterlimit:4;stroke-dasharray:none;fill:none;fill-opacity:0.2;fill-rule:evenodd"
       stroke-width="0.35 px"
       stroke="#191919"
       d="M 91.49999999999997 23.249999999999943 L 91.49999999999997 23.24999999999994 L 91.49999999999997 22.249999999999936 L 91.49999999999997 22.24999999999994 L 91.49999999999997 23.24999999999994 Z "
       id="Body019_f0017" />
    <path
       style="stroke-width:0.35;stroke-miterlimit:4;stroke-dasharray:none;fill:none;fill-opacity:0.2;fill-rule:evenodd"
       stroke-width="0.35 px"
       stroke="#191919"
       d="M 91.49999999999997 22.249999999999943 L 91.49999999999997 22.24999999999994 L 94.49999999999997 22.249999999999936 L 94.49999999999997 22.24999999999994 L 91.49999999999997 22.24999999999994 Z "
       id="Body019_f0018" />
    <path
       style="stroke-width:0.35;stroke-miterlimit:4;stroke-dasharray:none;fill:none;fill-opacity:0.2;fill-rule:evenodd"
       stroke-width="0.35 px"
       stroke="#191919"
       d="M 94.49999999999997 22.249999999999943 L 94.49999999999997 22.24999999999994 L 94.49999999999997 23.249999999999936 L 94.49999999999997 23.24999999999994 L 94.49999999999997 22.24999999999994 Z "
       id="Body019_f0019" />
    <path
       style="stroke-width:0.35;stroke-miterlimit:4;stroke-dasharray:none;fill:none;fill-opacity:0.2;fill-rule:evenodd"
       stroke-width="0.35 px"
       stroke="#191919"
       d="M 94.49999999999997 23.24999999999994 L 94.49999999999997 23.249999999999936 L 97.49999999999997 23.249999999999936 L 97.49999999999997 23.24999999999994 L 94.49999999999997 23.24999999999994 Z "
       id="Body019_f0020" />
    <path
       style="stroke-width:0.35;stroke-miterlimit:4;stroke-dasharray:none;fill:none;fill-opacity:0.2;fill-rule:evenodd"
       stroke-width="0.35 px"
       stroke="#191919"
       d="M 97.49999999999997 23.249999999999943 L 97.49999999999997 23.24999999999994 L 97.49999999999997 20.999999999999936 L 97.49999999999997 20.99999999999994 L 97.49999999999997 23.24999999999994 Z "
       id="Body019_f0021" />
    <path
       style="stroke-width:0.35;stroke-miterlimit:4;stroke-dasharray:none;fill:none;fill-opacity:0.2;fill-rule:evenodd"
       stroke-width="0.35 px"
       stroke="#191919"
       d="M 97.49999999999997 20.999999999999943 L 97.49999999999997 20.99999999999994 L 102.49999999999999 20.999999999999936 L 102.49999999999999 20.99999999999994 L 97.49999999999997 20.99999999999994 Z "
       id="Body019_f0022" />
    <path
       style="stroke-width:0.35;stroke-miterlimit:4;stroke-dasharray:none;fill:none;fill-opacity:0.2;fill-rule:evenodd"
       stroke-width="0.35 px"
       stroke="#191919"
       d="M 102.5 20.999999999999936 L 102.5 9.999999999999957 L 102.5 9.999999999999961 L 102.49999999999999 20.99999999999994 L 102.49999999999997 20.999999999999936 Z "
       id="Body019_f0023" />
    <path
       style="stroke-width:0.35;stroke-miterlimit:4;stroke-dasharray:none;fill:none;fill-opacity:0.2;fill-rule:evenodd"
       stroke-width="0.35 px"
       stroke="#191919"
       d="M 97.5 9.999999999999961 L 97.5 9.999999999999957 L 102.5 9.999999999999957 L 102.5 9.999999999999961 L 97.5 9.999999999999961 Z "
       id="Body019_f0024" />
    <path
       style="stroke-width:0.35;stroke-miterlimit:4;stroke-dasharray:none;fill:none;fill-opacity:0.2;fill-rule:evenodd"
       stroke-width="0.35 px"
       stroke="#191919"
       d="M 97.5 -3.9968028886505635e-14 L 97.5 -4.2078251911130794e-14 L 97.5 9.999999999999957 L 97.5 9.999999999999961 L 97.5 -3.9968028886505635e-14 Z "
       id="Body019_f0025" />
    <path
       style="stroke-width:0.35;stroke-miterlimit:4;stroke-dasharray:none;fill:none;fill-opacity:0.2;fill-rule:evenodd"
       stroke-width="0.35 px"
       stroke="#191919"
       d="M 87.5 -3.9968028886505635e-14 L 87.5 -4.2078251911130794e-14 L 97.5 -4.2078251911130794e-14 L 97.5 -3.9968028886505635e-14 L 87.5 -3.9968028886505635e-14 Z "
       id="Body019_f0026" />
    <path
       style="stroke-width:0.35;stroke-miterlimit:4;stroke-dasharray:none;fill:none;fill-opacity:0.2;fill-rule:evenodd"
       stroke-width="0.35 px"
       stroke="#191919"
       d="M 87.5 4.99999999999996 L 87.5 4.999999999999958 L 87.5 -4.2078251911130794e-14 L 87.5 -3.9968028886505635e-14 L 87.5 4.99999999999996 Z "
       id="Body019_f0027" />
    <path
       style="stroke-width:0.35;stroke-miterlimit:4;stroke-dasharray:none;fill:none;fill-opacity:0.2;fill-rule:evenodd"
       stroke-width="0.35 px"
       stroke="#191919"
       d="M -87.5 4.99999999999996 L -87.5 4.999999999999958 L 87.5 4.999999999999958 L 87.5 4.99999999999996 L -87.5 4.99999999999996 Z "
       id="Body019_f0028" />
    <path
       style="stroke-width:0.35;stroke-miterlimit:4;stroke-dasharray:none;fill:none;fill-opacity:0.2;fill-rule:evenodd"
       stroke-width="0.35 px"
       stroke="#191919"
       d="M -87.5 -3.9968028886505635e-14 L -87.5 -4.2078251911130794e-14 L -87.5 4.999999999999958 L -87.5 4.99999999999996 L -87.5 -3.9968028886505635e-14 Z "
       id="Body019_f0029" />
    <path
       style="stroke-width:0.35;stroke-miterlimit:4;stroke-dasharray:none;fill:none;fill-opacity:0.2;fill-rule:evenodd"
       stroke-width="0.35 px"
       stroke="#191919"
       d="M -97.5 -3.9968028886505635e-14 L -97.5 -4.2078251911130794e-14 L -87.5 -4.2078251911130794e-14 L -87.5 -3.9968028886505635e-14 L -97.5 -3.9968028886505635e-14 Z "
       id="Body019_f0030" />
    <path
       style="stroke-width:0.35;stroke-miterlimit:4;stroke-dasharray:none;fill:none;fill-opacity:0.2;fill-rule:evenodd"
       stroke-width="0.35 px"
       stroke="#191919"
       d="M -97.5 9.999999999999964 L -97.5 9.999999999999961 L -97.5 -4.2078251911130794e-14 L -97.5 -3.9968028886505635e-14 L -97.5 9.999999999999964 Z "
       id="Body019_f0031" />
    <path
       style="stroke-width:0.35;stroke-miterlimit:4;stroke-dasharray:none;fill:none;fill-opacity:0.2;fill-rule:evenodd"
       stroke-width="0.35 px"
       stroke="#191919"
       d="M -102.50000000000001 9.999999999999964 L -102.50000000000001 9.999999999999961 L -97.5 9.999999999999961 L -97.5 9.999999999999964 L -102.50000000000001 9.999999999999964 Z "
       id="Body019_f0032" />
    <path
       style="stroke-width:0.35;stroke-miterlimit:4;stroke-dasharray:none;fill:none;fill-opacity:0.2;fill-rule:evenodd"
       stroke-width="0.35 px"
       stroke="#191919"
       d="M -102.50000000000001 9.999999999999961 L -102.50000000000001 20.993675942598237 L -102.50000000000001 20.99367594259824 L -102.50000000000001 9.999999999999964 L -102.50000000000001 9.999999999999961 Z "
       id="Body019_f0033" />
    <path
       style="stroke-width:0.35;stroke-miterlimit:4;stroke-dasharray:none;fill:none;fill-opacity:0.2;fill-rule:evenodd"
       stroke-width="0.35 px"
       stroke="#191919"
       d="M -97.50000000000001 20.99367594259824 L -97.50000000000001 20.993675942598244 L -102.50000000000001 20.99367594259824 L -102.50000000000001 20.993675942598237 L -97.50000000000001 20.993675942598237 Z "
       id="Body019_f0034" />
    <path
       style="stroke-width:0.35;stroke-miterlimit:4;stroke-dasharray:none;fill:none;fill-opacity:0.2;fill-rule:evenodd"
       stroke-width="0.35 px"
       stroke="#191919"
       d="M -97.50000000000001 23.243675942598237 L -97.50000000000001 23.24367594259824 L -97.50000000000001 20.99367594259824 L -97.50000000000001 20.993675942598237 L -97.50000000000001 23.243675942598237 Z "
       id="Body019_f0035" />
    <path
       style="stroke-width:0.35;stroke-miterlimit:4;stroke-dasharray:none;fill:none;fill-opacity:0.2;fill-rule:evenodd"
       stroke-width="0.35 px"
       stroke="#191919"
       d="M -94.50000000000001 23.243675942598237 L -94.50000000000001 23.24367594259824 L -97.50000000000001 23.24367594259824 L -97.50000000000001 23.243675942598237 L -94.50000000000001 23.243675942598237 Z "
       id="Body019_f0036" />
    <path
       style="stroke-width:0.35;stroke-miterlimit:4;stroke-dasharray:none;fill:none;fill-opacity:0.2;fill-rule:evenodd"
       stroke-width="0.35 px"
       stroke="#191919"
       d="M -94.50000000000001 22.243675942598237 L -94.50000000000001 22.24367594259824 L -94.50000000000001 23.24367594259824 L -94.50000000000001 23.243675942598237 L -94.50000000000001 22.243675942598237 Z "
       id="Body019_f0037" />
    <path
       style="stroke-width:0.35;stroke-miterlimit:4;stroke-dasharray:none;fill:none;fill-opacity:0.2;fill-rule:evenodd"
       stroke-width="0.35 px"
       stroke="#191919"
       d="M -91.50000000000001 22.243675942598237 L -91.50000000000001 22.24367594259824 L -94.50000000000001 22.24367594259824 L -94.50000000000001 22.243675942598237 L -91.50000000000001 22.243675942598237 Z "
       id="Body019_f0038" />
    <path
       style="stroke-width:0.35;stroke-miterlimit:4;stroke-dasharray:none;fill:none;fill-opacity:0.2;fill-rule:evenodd"
       stroke-width="0.35 px"
       stroke="#191919"
       d="M -91.50000000000001 23.243675942598237 L -91.50000000000001 23.24367594259824 L -91.50000000000001 22.24367594259824 L -91.50000000000001 22.243675942598237 L -91.50000000000001 23.243675942598237 Z "
       id="Body019_f0039" />
    <path
       style="stroke-width:0.35;stroke-miterlimit:4;stroke-dasharray:none;fill:none;fill-opacity:0.2;fill-rule:evenodd"
       stroke-width="0.35 px"
       stroke="#191919"
       d="M -88.50000000000001 23.243675942598237 L -88.50000000000001 23.24367594259824 L -91.50000000000001 23.24367594259824 L -91.50000000000001 23.243675942598237 L -88.50000000000001 23.243675942598237 Z "
       id="Body019_f0040" />
    <path
       style="stroke-width:0.35;stroke-miterlimit:4;stroke-dasharray:none;fill:none;fill-opacity:0.2;fill-rule:evenodd"
       stroke-width="0.35 px"
       stroke="#191919"
       d="M -88.50000000000001 26.743675942598237 L -88.50000000000001 26.74367594259824 L -88.50000000000001 23.24367594259824 L -88.50000000000001 23.243675942598237 L -88.50000000000001 26.743675942598237 Z "
       id="Body019_f0041" />
    <path
       style="stroke-width:0.35;stroke-miterlimit:4;stroke-dasharray:none;fill:none;fill-opacity:0.2;fill-rule:evenodd"
       stroke-width="0.35 px"
       stroke="#191919"
       d="M -91.50000000000001 26.743675942598237 L -91.50000000000001 26.74367594259824 L -88.50000000000001 26.74367594259824 L -88.50000000000001 26.743675942598237 L -91.50000000000001 26.743675942598237 Z "
       id="Body019_f0042" />
    <path
       style="stroke-width:0.35;stroke-miterlimit:4;stroke-dasharray:none;fill:none;fill-opacity:0.2;fill-rule:evenodd"
       stroke-width="0.35 px"
       stroke="#191919"
       d="M -91.50000000000001 27.743675942598237 L -91.50000000000001 27.74367594259824 L -91.50000000000001 26.74367594259824 L -91.50000000000001 26.743675942598237 L -91.50000000000001 27.743675942598237 Z "
       id="Body019_f0043" />
    <path
       style="stroke-width:0.35;stroke-miterlimit:4;stroke-dasharray:none;fill:none;fill-opacity:0.2;fill-rule:evenodd"
       stroke-width="0.35 px"
       stroke="#191919"
       d="M -94.50000000000001 27.743675942598237 L -94.50000000000001 27.74367594259824 L -91.50000000000001 27.74367594259824 L -91.50000000000001 27.743675942598237 L -94.50000000000001 27.743675942598237 Z "
       id="Body019_f0044" />
    <path
       style="stroke-width:0.35;stroke-miterlimit:4;stroke-dasharray:none;fill:none;fill-opacity:0.2;fill-rule:evenodd"
       stroke-width="0.35 px"
       stroke="#191919"
       d="M -94.50000000000001 26.743675942598237 L -94.50000000000001 26.74367594259824 L -94.50000000000001 27.74367594259824 L -94.50000000000001 27.743675942598237 L -94.50000000000001 26.743675942598237 Z "
       id="Body019_f0045" />
    <path
       style="stroke-width:0.35;stroke-miterlimit:4;stroke-dasharray:none;fill:none;fill-opacity:0.2;fill-rule:evenodd"
       stroke-width="0.35 px"
       stroke="#191919"
       d="M -97.50000000000001 26.743675942598237 L -97.50000000000001 26.74367594259824 L -94.50000000000001 26.74367594259824 L -94.50000000000001 26.743675942598237 L -97.50000000000001 26.743675942598237 Z "
       id="Body019_f0046" />
    <path
       style="stroke-width:0.35;stroke-miterlimit:4;stroke-dasharray:none;fill:none;fill-opacity:0.2;fill-rule:evenodd"
       stroke-width="0.35 px"
       stroke="#191919"
       d="M -97.50000000000001 28.99367594259824 L -97.50000000000001 28.993675942598244 L -97.50000000000001 26.74367594259824 L -97.50000000000001 26.743675942598237 L -97.50000000000001 28.993675942598237 Z "
       id="Body019_f0047" />
    <path
       style="stroke-width:0.35;stroke-miterlimit:4;stroke-dasharray:none;fill:none;fill-opacity:0.2;fill-rule:evenodd"
       stroke-width="0.35 px"
       stroke="#191919"
       d="M -102.50000000000001 28.99367594259824 L -102.50000000000001 28.993675942598244 L -97.50000000000001 28.99367594259824 L -97.50000000000001 28.993675942598237 L -102.50000000000001 28.993675942598237 Z "
       id="Body019_f0048" />
    <path
       style="stroke-width:0.35;stroke-miterlimit:4;stroke-dasharray:none;fill:none;fill-opacity:0.2;fill-rule:evenodd"
       stroke-width="0.35 px"
       stroke="#191919"
       d="M -102.50000000000001 28.993675942598237 L -102.50000000000001 39.99367594259824 L -102.50000000000001 39.993675942598244 L -102.50000000000001 28.99367594259824 L -102.50000000000001 28.993675942598237 Z "
       id="Body019_f0049" />
    <path
       style="stroke-width:0.35;stroke-miterlimit:4;stroke-dasharray:none;fill:none;fill-opacity:0.2;fill-rule:evenodd"
       stroke-width="0.35 px"
       stroke="#191919"
       d="M -102.50000000000001 39.99367594259824 L -102.50000000000001 39.99999999999996 L -102.50000000000001 39.99999999999996 L -102.50000000000001 39.99367594259824 L -102.50000000000001 39.99367594259824 Z "
       id="Body019_f0050" />
    <title
       id="title53">b'bd_back'</title>
  </g>
</svg>
