<?xml version="1.0" encoding="UTF-8" standalone="no"?>
<svg
   xmlns:dc="http://purl.org/dc/elements/1.1/"
   xmlns:cc="http://creativecommons.org/ns#"
   xmlns:rdf="http://www.w3.org/1999/02/22-rdf-syntax-ns#"
   xmlns:svg="http://www.w3.org/2000/svg"
   xmlns="http://www.w3.org/2000/svg"
   xmlns:sodipodi="http://sodipodi.sourceforge.net/DTD/sodipodi-0.dtd"
   xmlns:inkscape="http://www.inkscape.org/namespaces/inkscape"
   inkscape:version="1.0 (4035a4fb49, 2020-05-01)"
   sodipodi:docname="bd_front.svg"
   id="svg51"
   version="1.1"
   viewBox="0 0 209.10000000000014 54.10000000000002"
   height="54.10000000000002mm"
   width="209.10000000000014mm">
  <metadata
     id="metadata57">
    <rdf:RDF>
      <cc:Work
         rdf:about="">
        <dc:format>image/svg+xml</dc:format>
        <dc:type
           rdf:resource="http://purl.org/dc/dcmitype/StillImage" />
      </cc:Work>
    </rdf:RDF>
  </metadata>
  <defs
     id="defs55" />
  <sodipodi:namedview
     inkscape:current-layer="svg51"
     inkscape:window-maximized="0"
     inkscape:window-y="0"
     inkscape:window-x="0"
     inkscape:cy="102.23622"
     inkscape:cx="395.14962"
     inkscape:zoom="2.3105172"
     showgrid="false"
     id="namedview53"
     inkscape:window-height="1658"
     inkscape:window-width="2087"
     inkscape:pageshadow="2"
     inkscape:pageopacity="0"
     guidetolerance="10"
     gridtolerance="10"
     objecttolerance="10"
     borderopacity="1"
     bordercolor="#666666"
     pagecolor="#ffffff" />
  <g
     style="fill:none"
     transform="translate(104.550000,2.050000) scale(1,-1)"
     id="Body017">
    <path
       style="stroke-width:0.35;stroke-miterlimit:4;stroke-dasharray:none;fill:none;fill-opacity:0.2;fill-rule:evenodd"
       stroke-width="0.35 px"
       stroke="#191919"
       d="M -97.50000000000003 -40.000000000000014 L -97.50000000000003 -50.000000000000014 L -97.50000000000003 -50.000000000000014 L -97.50000000000003 -40.00000000000001 L -97.50000000000003 -40.00000000000001 Z "
       id="Body017_f0000" />
    <path
       style="stroke-width:0.35;stroke-miterlimit:4;stroke-dasharray:none;fill:none;fill-opacity:0.2;fill-rule:evenodd"
       stroke-width="0.35 px"
       stroke="#191919"
       d="M -97.49999999999997 -50.000000000000014 L 97.50000000000003 -50.000000000000014 L 97.50000000000003 -50.000000000000014 L -97.50000000000003 -50.000000000000014 L -97.50000000000003 -50.000000000000014 Z "
       id="Body017_f0001" />
    <path
       style="stroke-width:0.35;stroke-miterlimit:4;stroke-dasharray:none;fill:none;fill-opacity:0.2;fill-rule:evenodd"
       stroke-width="0.35 px"
       stroke="#191919"
       d="M -102.50000000000006 -40.00000000000001 L -97.50000000000003 -40.00000000000001 L -97.50000000000003 -40.00000000000001 L -102.50000000000006 -40.00000000000001 L -102.50000000000006 -40.00000000000001 Z "
       id="Body017_f0002" />
    <path
       style="stroke-width:0.35;stroke-miterlimit:4;stroke-dasharray:none;fill:none;fill-opacity:0.2;fill-rule:evenodd"
       stroke-width="0.35 px"
       stroke="#191919"
       d="M -97.50000000000003 -40.00000000000001 L -102.50000000000006 -40.00000000000001 L -102.50000000000004 -29.000000000000007 L -97.50000000000001 -29.000000000000007 L -97.50000000000003 -26.750000000000007 L -94.5 -26.750000000000007 L -94.50000000000001 -27.750000000000007 L -91.5 -27.750000000000007 L -91.50000000000001 -26.750000000000007 L -88.5 -26.750000000000007 L -88.50000000000001 -23.250000000000007 L -91.5 -23.250000000000004 L -91.50000000000001 -22.250000000000004 L -94.5 -22.250000000000004 L -94.50000000000001 -23.250000000000007 L -97.50000000000001 -23.250000000000004 L -97.50000000000003 -21.000000000000004 L -102.50000000000003 -21.000000000000004 L -102.50000000000006 -10.000000000000002 L -97.50000000000006 -10.000000000000002 L -97.50000000000003 0.0 L 97.50000000000003 0.0 L 97.50000000000003 -10.000000000000002 L 102.50000000000003 -10.000000000000002 L 102.50000000000006 -20.99999999999996 L 97.50000000000009 -20.999999999999964 L 97.50000000000011 -23.249999999999968 L 94.50000000000009 -23.249999999999968 L 94.5000000000001 -22.249999999999968 L 91.50000000000009 -22.249999999999975 L 91.5000000000001 -23.249999999999975 L 88.50000000000009 -23.249999999999975 L 88.5000000000001 -26.74999999999998 L 91.50000000000009 -26.74999999999998 L 91.5000000000001 -27.749999999999975 L 94.50000000000009 -27.74999999999997 L 94.5000000000001 -26.74999999999997 L 97.5000000000001 -26.749999999999968 L 97.50000000000011 -28.999999999999968 L 102.50000000000006 -28.999999999999964 L 102.50000000000003 -40.00000000000001 L 97.50000000000003 -40.00000000000001 L 97.50000000000003 -50.000000000000014 L -97.50000000000003 -50.000000000000014 L -97.50000000000003 -40.00000000000001 Z "
       id="Body017_f0003" />
    <path
       style="stroke-width:0.35;stroke-miterlimit:4;stroke-dasharray:none;fill:none;fill-opacity:0.2;fill-rule:evenodd"
       stroke-width="0.35 px"
       stroke="#191919"
       d="M 97.50000000000003 -40.00000000000001 L 97.50000000000003 -50.000000000000014 L -97.50000000000003 -50.000000000000014 L -97.50000000000003 -40.00000000000001 L -102.50000000000006 -40.00000000000001 L -102.50000000000004 -29.000000000000007 L -97.50000000000001 -29.000000000000007 L -97.50000000000003 -26.750000000000007 L -94.5 -26.750000000000007 L -94.50000000000001 -27.750000000000007 L -91.5 -27.750000000000007 L -91.50000000000001 -26.750000000000007 L -88.5 -26.750000000000007 L -88.50000000000001 -23.250000000000007 L -91.5 -23.250000000000004 L -91.50000000000001 -22.250000000000004 L -94.5 -22.250000000000004 L -94.50000000000001 -23.250000000000007 L -97.50000000000001 -23.250000000000004 L -97.50000000000003 -21.000000000000004 L -102.50000000000003 -21.000000000000004 L -102.50000000000006 -10.000000000000002 L -97.50000000000006 -10.000000000000002 L -97.50000000000003 -1.97215226305253e-31 L 97.50000000000003 -1.97215226305253e-31 L 97.50000000000003 -10.000000000000002 L 102.50000000000003 -10.000000000000002 L 102.50000000000006 -20.99999999999996 L 97.50000000000009 -20.999999999999964 L 97.50000000000011 -23.249999999999968 L 94.50000000000009 -23.249999999999968 L 94.5000000000001 -22.249999999999968 L 91.50000000000009 -22.249999999999975 L 91.5000000000001 -23.249999999999975 L 88.50000000000009 -23.249999999999975 L 88.5000000000001 -26.74999999999998 L 91.50000000000009 -26.74999999999998 L 91.5000000000001 -27.749999999999975 L 94.50000000000009 -27.74999999999997 L 94.5000000000001 -26.74999999999997 L 97.5000000000001 -26.749999999999968 L 97.50000000000011 -28.999999999999968 L 102.50000000000006 -28.999999999999964 L 102.50000000000003 -40.00000000000001 L 97.50000000000003 -40.00000000000001 Z "
       id="Body017_f0004" />
    <path
       style="stroke-width:0.35;stroke-miterlimit:4;stroke-dasharray:none;fill:none;fill-opacity:0.2;fill-rule:evenodd"
       stroke-width="0.35 px"
       stroke="#191919"
       d="M 97.50000000000003 -50.00000000000001 L 97.50000000000003 -40.00000000000001 L 97.50000000000003 -40.00000000000001 L 97.50000000000003 -50.000000000000014 L 97.50000000000003 -50.000000000000014 Z "
       id="Body017_f0005" />
    <path
       style="stroke-width:0.35;stroke-miterlimit:4;stroke-dasharray:none;fill:none;fill-opacity:0.2;fill-rule:evenodd"
       stroke-width="0.35 px"
       stroke="#191919"
       d="M -102.50000000000004 -29.000000000000007 L -102.50000000000004 -29.000000000000007 L -102.50000000000006 -40.00000000000001 L -102.50000000000006 -40.00000000000001 L -102.50000000000004 -29.000000000000007 Z "
       id="Body017_f0006" />
    <path
       style="stroke-width:0.35;stroke-miterlimit:4;stroke-dasharray:none;fill:none;fill-opacity:0.2;fill-rule:evenodd"
       stroke-width="0.35 px"
       stroke="#191919"
       d="M 97.50000000000003 -40.00000000000001 L 102.50000000000003 -40.00000000000001 L 102.50000000000003 -40.00000000000001 L 97.50000000000003 -40.00000000000001 L 97.50000000000003 -40.00000000000001 Z "
       id="Body017_f0007" />
    <path
       style="stroke-width:0.35;stroke-miterlimit:4;stroke-dasharray:none;fill:none;fill-opacity:0.2;fill-rule:evenodd"
       stroke-width="0.35 px"
       stroke="#191919"
       d="M 102.50000000000007 -28.999999999999964 L 102.50000000000007 -28.999999999999964 L 102.50000000000003 -40.00000000000001 L 102.50000000000003 -40.00000000000001 L 102.50000000000003 -28.999999999999957 Z "
       id="Body017_f0008" />
    <path
       style="stroke-width:0.35;stroke-miterlimit:4;stroke-dasharray:none;fill:none;fill-opacity:0.2;fill-rule:evenodd"
       stroke-width="0.35 px"
       stroke="#191919"
       d="M 97.50000000000011 -28.99999999999997 L 97.50000000000011 -28.999999999999968 L 102.50000000000006 -28.999999999999964 L 102.50000000000007 -28.999999999999964 L 97.50000000000011 -28.999999999999968 Z "
       id="Body017_f0009" />
    <path
       style="stroke-width:0.35;stroke-miterlimit:4;stroke-dasharray:none;fill:none;fill-opacity:0.2;fill-rule:evenodd"
       stroke-width="0.35 px"
       stroke="#191919"
       d="M 97.5000000000001 -26.74999999999997 L 97.5000000000001 -26.749999999999968 L 97.50000000000011 -28.999999999999968 L 97.50000000000011 -28.999999999999968 L 97.50000000000011 -26.749999999999968 Z "
       id="Body017_f0010" />
    <path
       style="stroke-width:0.35;stroke-miterlimit:4;stroke-dasharray:none;fill:none;fill-opacity:0.2;fill-rule:evenodd"
       stroke-width="0.35 px"
       stroke="#191919"
       d="M 94.5000000000001 -26.749999999999975 L 94.5000000000001 -26.74999999999997 L 97.5000000000001 -26.749999999999968 L 97.50000000000011 -26.749999999999968 L 94.5000000000001 -26.74999999999997 Z "
       id="Body017_f0011" />
    <path
       style="stroke-width:0.35;stroke-miterlimit:4;stroke-dasharray:none;fill:none;fill-opacity:0.2;fill-rule:evenodd"
       stroke-width="0.35 px"
       stroke="#191919"
       d="M 94.5000000000001 -27.749999999999975 L 94.5000000000001 -27.74999999999997 L 94.5000000000001 -26.74999999999997 L 94.5000000000001 -26.74999999999997 L 94.5000000000001 -27.74999999999997 Z "
       id="Body017_f0012" />
    <path
       style="stroke-width:0.35;stroke-miterlimit:4;stroke-dasharray:none;fill:none;fill-opacity:0.2;fill-rule:evenodd"
       stroke-width="0.35 px"
       stroke="#191919"
       d="M 91.5000000000001 -27.74999999999998 L 91.5000000000001 -27.749999999999975 L 94.50000000000009 -27.74999999999997 L 94.5000000000001 -27.74999999999997 L 91.5000000000001 -27.749999999999975 Z "
       id="Body017_f0013" />
    <path
       style="stroke-width:0.35;stroke-miterlimit:4;stroke-dasharray:none;fill:none;fill-opacity:0.2;fill-rule:evenodd"
       stroke-width="0.35 px"
       stroke="#191919"
       d="M 91.5000000000001 -26.74999999999998 L 91.5000000000001 -26.749999999999975 L 91.5000000000001 -27.749999999999975 L 91.5000000000001 -27.749999999999975 L 91.5000000000001 -26.749999999999975 Z "
       id="Body017_f0014" />
    <path
       style="stroke-width:0.35;stroke-miterlimit:4;stroke-dasharray:none;fill:none;fill-opacity:0.2;fill-rule:evenodd"
       stroke-width="0.35 px"
       stroke="#191919"
       d="M 88.5000000000001 -26.749999999999982 L 88.5000000000001 -26.74999999999998 L 91.50000000000009 -26.74999999999998 L 91.5000000000001 -26.749999999999975 L 88.5000000000001 -26.74999999999998 Z "
       id="Body017_f0015" />
    <path
       style="stroke-width:0.35;stroke-miterlimit:4;stroke-dasharray:none;fill:none;fill-opacity:0.2;fill-rule:evenodd"
       stroke-width="0.35 px"
       stroke="#191919"
       d="M 88.5000000000001 -23.249999999999982 L 88.5000000000001 -23.24999999999998 L 88.5000000000001 -26.74999999999998 L 88.5000000000001 -26.74999999999998 L 88.50000000000009 -23.249999999999975 Z "
       id="Body017_f0016" />
    <path
       style="stroke-width:0.35;stroke-miterlimit:4;stroke-dasharray:none;fill:none;fill-opacity:0.2;fill-rule:evenodd"
       stroke-width="0.35 px"
       stroke="#191919"
       d="M 91.5000000000001 -23.24999999999998 L 91.5000000000001 -23.249999999999975 L 88.50000000000009 -23.249999999999975 L 88.50000000000009 -23.249999999999975 L 91.5000000000001 -23.24999999999997 Z "
       id="Body017_f0017" />
    <path
       style="stroke-width:0.35;stroke-miterlimit:4;stroke-dasharray:none;fill:none;fill-opacity:0.2;fill-rule:evenodd"
       stroke-width="0.35 px"
       stroke="#191919"
       d="M 91.5000000000001 -22.24999999999998 L 91.5000000000001 -22.249999999999975 L 91.5000000000001 -23.249999999999975 L 91.5000000000001 -23.24999999999997 L 91.5000000000001 -22.24999999999997 Z "
       id="Body017_f0018" />
    <path
       style="stroke-width:0.35;stroke-miterlimit:4;stroke-dasharray:none;fill:none;fill-opacity:0.2;fill-rule:evenodd"
       stroke-width="0.35 px"
       stroke="#191919"
       d="M 94.5000000000001 -22.249999999999975 L 94.5000000000001 -22.24999999999997 L 91.50000000000009 -22.249999999999975 L 91.5000000000001 -22.24999999999997 L 94.5000000000001 -22.249999999999968 Z "
       id="Body017_f0019" />
    <path
       style="stroke-width:0.35;stroke-miterlimit:4;stroke-dasharray:none;fill:none;fill-opacity:0.2;fill-rule:evenodd"
       stroke-width="0.35 px"
       stroke="#191919"
       d="M 94.5000000000001 -23.249999999999975 L 94.5000000000001 -23.24999999999997 L 94.5000000000001 -22.249999999999968 L 94.5000000000001 -22.249999999999968 L 94.5000000000001 -23.249999999999968 Z "
       id="Body017_f0020" />
    <path
       style="stroke-width:0.35;stroke-miterlimit:4;stroke-dasharray:none;fill:none;fill-opacity:0.2;fill-rule:evenodd"
       stroke-width="0.35 px"
       stroke="#191919"
       d="M 97.5000000000001 -23.24999999999997 L 97.5000000000001 -23.249999999999968 L 94.50000000000009 -23.249999999999968 L 94.5000000000001 -23.249999999999968 L 97.50000000000011 -23.249999999999964 Z "
       id="Body017_f0021" />
    <path
       style="stroke-width:0.35;stroke-miterlimit:4;stroke-dasharray:none;fill:none;fill-opacity:0.2;fill-rule:evenodd"
       stroke-width="0.35 px"
       stroke="#191919"
       d="M 97.50000000000009 -20.99999999999997 L 97.50000000000009 -20.999999999999968 L 97.50000000000011 -23.249999999999968 L 97.50000000000011 -23.249999999999964 L 97.5000000000001 -20.999999999999964 Z "
       id="Body017_f0022" />
    <path
       style="stroke-width:0.35;stroke-miterlimit:4;stroke-dasharray:none;fill:none;fill-opacity:0.2;fill-rule:evenodd"
       stroke-width="0.35 px"
       stroke="#191919"
       d="M 102.50000000000009 -20.999999999999964 L 102.50000000000009 -20.99999999999996 L 97.50000000000009 -20.999999999999964 L 97.5000000000001 -20.999999999999964 L 102.50000000000006 -20.99999999999996 Z "
       id="Body017_f0023" />
    <path
       style="stroke-width:0.35;stroke-miterlimit:4;stroke-dasharray:none;fill:none;fill-opacity:0.2;fill-rule:evenodd"
       stroke-width="0.35 px"
       stroke="#191919"
       d="M 102.50000000000006 -20.99999999999996 L 102.50000000000006 -20.99999999999996 L 102.50000000000003 -10.000000000000002 L 102.50000000000003 -10.000000000000002 L 102.50000000000006 -20.99999999999996 Z "
       id="Body017_f0024" />
    <path
       style="stroke-width:0.35;stroke-miterlimit:4;stroke-dasharray:none;fill:none;fill-opacity:0.2;fill-rule:evenodd"
       stroke-width="0.35 px"
       stroke="#191919"
       d="M 102.50000000000003 -10.000000000000002 L 97.50000000000003 -10.000000000000002 L 97.50000000000003 -10.000000000000002 L 102.50000000000003 -10.000000000000002 L 102.50000000000003 -10.000000000000002 Z "
       id="Body017_f0025" />
    <path
       style="stroke-width:0.35;stroke-miterlimit:4;stroke-dasharray:none;fill:none;fill-opacity:0.2;fill-rule:evenodd"
       stroke-width="0.35 px"
       stroke="#191919"
       d="M 97.50000000000003 -10.0 L 97.50000000000003 0.0 L 97.50000000000003 -1.97215226305253e-31 L 97.50000000000003 -10.000000000000002 L 97.50000000000003 -10.000000000000002 Z "
       id="Body017_f0026" />
    <path
       style="stroke-width:0.35;stroke-miterlimit:4;stroke-dasharray:none;fill:none;fill-opacity:0.2;fill-rule:evenodd"
       stroke-width="0.35 px"
       stroke="#191919"
       d="M 97.49999999999997 0.0 L -97.50000000000003 0.0 L -97.50000000000003 -1.97215226305253e-31 L 97.50000000000003 -1.97215226305253e-31 L 97.50000000000003 0.0 Z "
       id="Body017_f0027" />
    <path
       style="stroke-width:0.35;stroke-miterlimit:4;stroke-dasharray:none;fill:none;fill-opacity:0.2;fill-rule:evenodd"
       stroke-width="0.35 px"
       stroke="#191919"
       d="M -97.50000000000003 -1.7763568394002505e-15 L -97.50000000000006 -10.000000000000002 L -97.50000000000006 -10.000000000000002 L -97.50000000000003 -1.97215226305253e-31 L -97.50000000000003 0.0 Z "
       id="Body017_f0028" />
    <path
       style="stroke-width:0.35;stroke-miterlimit:4;stroke-dasharray:none;fill:none;fill-opacity:0.2;fill-rule:evenodd"
       stroke-width="0.35 px"
       stroke="#191919"
       d="M -97.50000000000006 -10.000000000000002 L -102.50000000000006 -10.000000000000002 L -102.50000000000006 -10.000000000000002 L -97.50000000000006 -10.000000000000002 L -97.50000000000006 -10.000000000000002 Z "
       id="Body017_f0029" />
    <path
       style="stroke-width:0.35;stroke-miterlimit:4;stroke-dasharray:none;fill:none;fill-opacity:0.2;fill-rule:evenodd"
       stroke-width="0.35 px"
       stroke="#191919"
       d="M -102.50000000000004 -21.000000000000004 L -102.50000000000004 -21.000000000000004 L -102.50000000000006 -10.000000000000002 L -102.50000000000006 -10.000000000000002 L -102.50000000000006 -21.000000000000007 Z "
       id="Body017_f0030" />
    <path
       style="stroke-width:0.35;stroke-miterlimit:4;stroke-dasharray:none;fill:none;fill-opacity:0.2;fill-rule:evenodd"
       stroke-width="0.35 px"
       stroke="#191919"
       d="M -97.50000000000003 -21.00000000000001 L -97.50000000000003 -21.000000000000007 L -102.50000000000003 -21.000000000000004 L -102.50000000000004 -21.000000000000004 L -97.50000000000003 -21.000000000000004 Z "
       id="Body017_f0031" />
    <path
       style="stroke-width:0.35;stroke-miterlimit:4;stroke-dasharray:none;fill:none;fill-opacity:0.2;fill-rule:evenodd"
       stroke-width="0.35 px"
       stroke="#191919"
       d="M -97.50000000000003 -23.25000000000001 L -97.50000000000003 -23.250000000000007 L -97.50000000000003 -21.000000000000004 L -97.50000000000003 -21.000000000000004 L -97.50000000000003 -23.250000000000004 Z "
       id="Body017_f0032" />
    <path
       style="stroke-width:0.35;stroke-miterlimit:4;stroke-dasharray:none;fill:none;fill-opacity:0.2;fill-rule:evenodd"
       stroke-width="0.35 px"
       stroke="#191919"
       d="M -94.50000000000003 -23.250000000000007 L -94.50000000000003 -23.250000000000004 L -97.50000000000001 -23.250000000000004 L -97.50000000000003 -23.250000000000004 L -94.50000000000001 -23.250000000000004 Z "
       id="Body017_f0033" />
    <path
       style="stroke-width:0.35;stroke-miterlimit:4;stroke-dasharray:none;fill:none;fill-opacity:0.2;fill-rule:evenodd"
       stroke-width="0.35 px"
       stroke="#191919"
       d="M -94.50000000000003 -22.25000000000001 L -94.50000000000003 -22.250000000000007 L -94.50000000000001 -23.250000000000007 L -94.50000000000001 -23.250000000000004 L -94.50000000000001 -22.250000000000004 Z "
       id="Body017_f0034" />
    <path
       style="stroke-width:0.35;stroke-miterlimit:4;stroke-dasharray:none;fill:none;fill-opacity:0.2;fill-rule:evenodd"
       stroke-width="0.35 px"
       stroke="#191919"
       d="M -91.50000000000003 -22.25000000000001 L -91.50000000000003 -22.250000000000007 L -94.5 -22.250000000000004 L -94.50000000000001 -22.250000000000004 L -91.50000000000001 -22.250000000000004 Z "
       id="Body017_f0035" />
    <path
       style="stroke-width:0.35;stroke-miterlimit:4;stroke-dasharray:none;fill:none;fill-opacity:0.2;fill-rule:evenodd"
       stroke-width="0.35 px"
       stroke="#191919"
       d="M -91.50000000000003 -23.25000000000001 L -91.50000000000003 -23.250000000000007 L -91.50000000000001 -22.250000000000004 L -91.50000000000001 -22.250000000000004 L -91.50000000000001 -23.250000000000004 Z "
       id="Body017_f0036" />
    <path
       style="stroke-width:0.35;stroke-miterlimit:4;stroke-dasharray:none;fill:none;fill-opacity:0.2;fill-rule:evenodd"
       stroke-width="0.35 px"
       stroke="#191919"
       d="M -88.50000000000003 -23.25000000000001 L -88.50000000000003 -23.250000000000007 L -91.5 -23.250000000000004 L -91.50000000000001 -23.250000000000004 L -88.50000000000001 -23.250000000000004 Z "
       id="Body017_f0037" />
    <path
       style="stroke-width:0.35;stroke-miterlimit:4;stroke-dasharray:none;fill:none;fill-opacity:0.2;fill-rule:evenodd"
       stroke-width="0.35 px"
       stroke="#191919"
       d="M -88.50000000000003 -26.75000000000001 L -88.50000000000003 -26.750000000000007 L -88.50000000000001 -23.250000000000007 L -88.50000000000001 -23.250000000000004 L -88.50000000000001 -26.750000000000007 Z "
       id="Body017_f0038" />
    <path
       style="stroke-width:0.35;stroke-miterlimit:4;stroke-dasharray:none;fill:none;fill-opacity:0.2;fill-rule:evenodd"
       stroke-width="0.35 px"
       stroke="#191919"
       d="M -91.50000000000003 -26.75000000000001 L -91.50000000000003 -26.750000000000007 L -88.5 -26.750000000000007 L -88.50000000000001 -26.750000000000007 L -91.50000000000001 -26.750000000000007 Z "
       id="Body017_f0039" />
    <path
       style="stroke-width:0.35;stroke-miterlimit:4;stroke-dasharray:none;fill:none;fill-opacity:0.2;fill-rule:evenodd"
       stroke-width="0.35 px"
       stroke="#191919"
       d="M -91.50000000000003 -27.75000000000001 L -91.50000000000003 -27.750000000000007 L -91.50000000000001 -26.750000000000007 L -91.50000000000001 -26.750000000000007 L -91.50000000000001 -27.750000000000007 Z "
       id="Body017_f0040" />
    <path
       style="stroke-width:0.35;stroke-miterlimit:4;stroke-dasharray:none;fill:none;fill-opacity:0.2;fill-rule:evenodd"
       stroke-width="0.35 px"
       stroke="#191919"
       d="M -94.50000000000003 -27.75000000000001 L -94.50000000000003 -27.750000000000007 L -91.5 -27.750000000000007 L -91.50000000000001 -27.750000000000007 L -94.50000000000001 -27.750000000000007 Z "
       id="Body017_f0041" />
    <path
       style="stroke-width:0.35;stroke-miterlimit:4;stroke-dasharray:none;fill:none;fill-opacity:0.2;fill-rule:evenodd"
       stroke-width="0.35 px"
       stroke="#191919"
       d="M -94.50000000000003 -26.75000000000001 L -94.50000000000003 -26.750000000000007 L -94.50000000000001 -27.750000000000007 L -94.50000000000001 -27.750000000000007 L -94.50000000000001 -26.750000000000007 Z "
       id="Body017_f0042" />
    <path
       style="stroke-width:0.35;stroke-miterlimit:4;stroke-dasharray:none;fill:none;fill-opacity:0.2;fill-rule:evenodd"
       stroke-width="0.35 px"
       stroke="#191919"
       d="M -97.50000000000003 -26.75000000000001 L -97.50000000000003 -26.750000000000007 L -94.5 -26.750000000000007 L -94.50000000000001 -26.750000000000007 L -97.50000000000003 -26.750000000000007 Z "
       id="Body017_f0043" />
    <path
       style="stroke-width:0.35;stroke-miterlimit:4;stroke-dasharray:none;fill:none;fill-opacity:0.2;fill-rule:evenodd"
       stroke-width="0.35 px"
       stroke="#191919"
       d="M -97.50000000000003 -29.00000000000001 L -97.50000000000003 -29.000000000000007 L -97.50000000000003 -26.750000000000007 L -97.50000000000003 -26.750000000000007 L -97.50000000000003 -29.000000000000007 Z "
       id="Body017_f0044" />
    <path
       style="stroke-width:0.35;stroke-miterlimit:4;stroke-dasharray:none;fill:none;fill-opacity:0.2;fill-rule:evenodd"
       stroke-width="0.35 px"
       stroke="#191919"
       d="M -102.50000000000003 -29.00000000000001 L -102.50000000000003 -29.000000000000007 L -97.50000000000001 -29.000000000000007 L -97.50000000000003 -29.000000000000007 L -102.50000000000004 -29.000000000000007 Z "
       id="Body017_f0045" />
    <title
       id="title48">b'bd_front'</title>
  </g>
</svg>
